#N canvas 297 621 1333 421 10;
#X obj -16 36 pdsyntox;
#X obj 29 55 bng 15 250 50 0 empty empty empty 17 7 0 10 -262144 -1
-1;
#X obj -16 110 print output;
#X msg 894 22 lexicon;
#X obj 29 17 r lexicon;
#X obj 894 117 s lexicon;
#X msg 904 60 lexicon add chd chd[NIL];
#X msg 909 79 lexicon remove chd chd[NIL];
#X msg 914 98 lexicon clear;
#X obj 594 116 s grammar;
#X msg 594 21 grammar;
#X msg 599 40 grammar load etc/test.grammar;
#X msg 614 97 grammar clear;
#X obj 6 -2 r grammar;
#X obj -16 -21 r input;
#X obj 294 110 s input;
#X msg 301 91 load etc/test.input;
#X msg 294 72 input S[length:4];
#X obj 14 72 print lexicon;
#X obj -1 91 print grammar;
#X text -15 135 Object connection;
#X text 420 91 Load from file;
#X text 403 62 Input directly [Buggy];
#X text 942 22 Dump rules;
#X text 1080 40 Load from file;
#X text 1056 59 Add directly;
#X text 1077 78 Remove directly;
#X text 1000 98 Clear all;
#X text 643 22 Dump rules;
#X text 781 40 Load from file;
#X text 738 78 Remove directly;
#X text 701 98 Clear all;
#X text 898 140 Lexicon command;
#X text 600 140 Grammar command;
#X text 62 110 Synthesized outpupt;
#X text 101 70 Lexicon result;
#X text 82 90 Grammar result;
#X msg 899 41 lexicon load etc/test.lexicon;
#X text 46 52 Bang when something error occurs;
#X text 298 135 Parse command;
#X msg 604 59 grammar add X->Y;
#X msg 609 78 grammar remove X->Y;
#X text 717 59 Add directly[Buggy];
#X connect 0 0 2 0;
#X connect 0 1 19 0;
#X connect 0 2 18 0;
#X connect 0 3 1 0;
#X connect 3 0 5 0;
#X connect 4 0 0 2;
#X connect 6 0 5 0;
#X connect 7 0 5 0;
#X connect 8 0 5 0;
#X connect 10 0 9 0;
#X connect 11 0 9 0;
#X connect 12 0 9 0;
#X connect 13 0 0 1;
#X connect 14 0 0 0;
#X connect 16 0 15 0;
#X connect 17 0 15 0;
#X connect 37 0 5 0;
#X connect 40 0 9 0;
#X connect 41 0 9 0;
