#N canvas 303 606 1333 421 10;
#X obj 34 166 pdsyntox;
#X obj 79 185 bng 15 250 50 0 empty empty empty 17 7 0 10 -262144 -1
-1;
#X obj 34 240 print output;
#X msg 816 166 lexicon load etc/test.lexicon;
#X msg 811 147 lexicon;
#X obj 79 147 r lexicon;
#X obj 811 242 s lexicon;
#X msg 821 185 lexicon add chd chd[NIL];
#X msg 826 204 lexicon remove chd chd[NIL];
#X msg 831 223 lexicon clear;
#X obj 520 241 s grammar;
#X msg 520 146 grammar;
#X msg 525 165 grammar load etc/test.grammar;
#X msg 530 184 grammaradd chd chd[NIL];
#X msg 535 203 grammar remove chd chd[NIL];
#X msg 540 222 grammar clear;
#X obj 56 128 r grammar;
#X obj 34 109 r input;
#X obj 291 240 s input;
#X msg 298 221 load etc/test.input;
#X msg 291 202 input S[length:4];
#X obj 64 202 print lexicon;
#X obj 49 221 print grammar;
#X text 35 265 Object connection;
#X text 295 265 Parse command;
#X text 417 221 Load from file;
#X text 400 192 Input directly [Buggy];
#X text 859 147 Dump rules;
#X text 997 165 Load from file;
#X text 973 184 Add directly;
#X text 994 203 Remove directly;
#X text 917 223 Clear all;
#X text 569 147 Dump rules;
#X text 707 165 Load from file;
#X text 683 184 Add directly;
#X text 704 203 Remove directly;
#X text 627 223 Clear all;
#X text 815 265 Lexicon command;
#X text 526 265 Grammar command;
#X text 112 240 Synthesized outpupt;
#X text 102 170 Bang when something error occurs The error will be
print in pd-console;
#X text 151 200 Lexicon result;
#X text 132 220 Grammar result;
#X connect 0 0 2 0;
#X connect 0 1 22 0;
#X connect 0 2 21 0;
#X connect 0 3 1 0;
#X connect 3 0 6 0;
#X connect 4 0 6 0;
#X connect 5 0 0 2;
#X connect 7 0 6 0;
#X connect 8 0 6 0;
#X connect 9 0 6 0;
#X connect 11 0 10 0;
#X connect 12 0 10 0;
#X connect 13 0 10 0;
#X connect 14 0 10 0;
#X connect 15 0 10 0;
#X connect 16 0 0 1;
#X connect 17 0 0 0;
#X connect 19 0 18 0;
#X connect 20 0 18 0;
