#N canvas 274 717 1365 421 10;
#X obj 324 146 pdsyntox;
#X msg 212 23 grammar;
#X msg 508 108 grammar load etc/test.grammar;
#X obj 321 169 bng 15 250 50 0 empty empty empty 17 7 0 10 -262144
-1 -1;
#X obj 65 155 print output;
#X obj 273 227 print G;
#X obj 323 227 print L;
#X msg 221 55 grammar add path line subject with space;
#X msg 247 108 grammar remove path line subject with space22;
#X msg 237 81 grammar add path line subject with space22;
#X msg 306 20 grammar add;
#X msg 429 24 grammar load etc/test.grammar;
#X msg 832 79 lexicon load etc/test.lexicon;
#X msg 94 67 load etc/test.input;
#X msg 813 64 lexicon;
#X msg 82 25 input S;
#X connect 0 0 4 0;
#X connect 0 1 5 0;
#X connect 0 2 6 0;
#X connect 0 3 3 0;
#X connect 1 0 0 1;
#X connect 2 0 0 1;
#X connect 7 0 0 1;
#X connect 8 0 0 1;
#X connect 9 0 0 1;
#X connect 10 0 0 1;
#X connect 11 0 0 1;
#X connect 12 0 0 2;
#X connect 13 0 0 0;
#X connect 14 0 0 2;
#X connect 15 0 0 0;
